<mxfile host="Electron" agent="Mozilla/5.0 (Windows NT 10.0; Win64; x64) AppleWebKit/537.36 (KHTML, like Gecko) draw.io/24.7.8 Chrome/128.0.6613.36 Electron/32.0.1 Safari/537.36" version="24.7.8" pages="3">
  <diagram id="CBVy9BVXTYMIRcW2fgiH" name="Intro">
    <mxGraphModel dx="794" dy="519" grid="1" gridSize="10" guides="1" tooltips="1" connect="1" arrows="1" fold="1" page="1" pageScale="1" pageWidth="827" pageHeight="1169" math="0" shadow="0">
      <root>
        <mxCell id="0" />
        <mxCell id="1" parent="0" />
        <mxCell id="STcG1f_9IIMH0Qr4YTAB-1" value="" style="endArrow=classic;html=1;rounded=0;exitX=1;exitY=0.25;exitDx=0;exitDy=0;entryX=0;entryY=0.25;entryDx=0;entryDy=0;" parent="1" source="STcG1f_9IIMH0Qr4YTAB-5" target="STcG1f_9IIMH0Qr4YTAB-6" edge="1">
          <mxGeometry width="50" height="50" relative="1" as="geometry">
            <mxPoint x="300" y="470" as="sourcePoint" />
            <mxPoint x="350" y="420" as="targetPoint" />
          </mxGeometry>
        </mxCell>
        <mxCell id="STcG1f_9IIMH0Qr4YTAB-2" value="Cookie/URL param/HTTP auth header" style="rounded=1;whiteSpace=wrap;html=1;fillColor=#fff2cc;strokeColor=#d6b656;" parent="1" vertex="1">
          <mxGeometry x="260" y="340" width="120" height="60" as="geometry" />
        </mxCell>
        <mxCell id="STcG1f_9IIMH0Qr4YTAB-4" value="sessionId/&lt;div&gt;token/JWT&lt;/div&gt;" style="rounded=1;whiteSpace=wrap;html=1;fillColor=#f5f5f5;fontColor=#333333;strokeColor=#666666;" parent="1" vertex="1">
          <mxGeometry x="280" y="290" width="80" height="50" as="geometry" />
        </mxCell>
        <mxCell id="STcG1f_9IIMH0Qr4YTAB-5" value="Client" style="rounded=1;whiteSpace=wrap;html=1;" parent="1" vertex="1">
          <mxGeometry x="140" y="340" width="80" height="120" as="geometry" />
        </mxCell>
        <mxCell id="STcG1f_9IIMH0Qr4YTAB-6" value="Server" style="rounded=1;whiteSpace=wrap;html=1;" parent="1" vertex="1">
          <mxGeometry x="420" y="340" width="80" height="120" as="geometry" />
        </mxCell>
        <mxCell id="STcG1f_9IIMH0Qr4YTAB-7" value="sessions" style="rounded=1;whiteSpace=wrap;html=1;fillColor=#d5e8d4;strokeColor=#82b366;" parent="1" vertex="1">
          <mxGeometry x="540" y="340" width="80" height="40" as="geometry" />
        </mxCell>
        <mxCell id="STcG1f_9IIMH0Qr4YTAB-8" value="" style="shape=datastore;whiteSpace=wrap;html=1;" parent="1" vertex="1">
          <mxGeometry x="560" y="385" width="40" height="30" as="geometry" />
        </mxCell>
        <mxCell id="STcG1f_9IIMH0Qr4YTAB-9" value="" style="endArrow=classic;html=1;rounded=0;exitX=1;exitY=0.25;exitDx=0;exitDy=0;entryX=0;entryY=0.75;entryDx=0;entryDy=0;" parent="1" source="STcG1f_9IIMH0Qr4YTAB-6" target="STcG1f_9IIMH0Qr4YTAB-7" edge="1">
          <mxGeometry width="50" height="50" relative="1" as="geometry">
            <mxPoint x="230" y="380" as="sourcePoint" />
            <mxPoint x="430" y="380" as="targetPoint" />
          </mxGeometry>
        </mxCell>
        <mxCell id="5062YTrGmVt7nL1EK5kf-1" value="1. &lt;b&gt;&lt;i&gt;Cookie&lt;/i&gt;&lt;/b&gt; is only a carrier, similar to HTTP auth header or URL params.&lt;div&gt;&lt;br&gt;&lt;div style=&quot;&quot;&gt;&amp;nbsp;2. &lt;b&gt;&lt;i&gt;sessionId&lt;/i&gt;&lt;/b&gt;, &lt;b&gt;&lt;i&gt;token &lt;/i&gt;&lt;/b&gt;and &lt;b&gt;&lt;i&gt;JWT &lt;/i&gt;&lt;/b&gt;are all different kinds of payload, carried by carries.&lt;/div&gt;&lt;/div&gt;&lt;div style=&quot;&quot;&gt;&lt;br&gt;&lt;/div&gt;&lt;div style=&quot;&quot;&gt;3. &lt;b&gt;&lt;i&gt;Sessions &lt;/i&gt;&lt;/b&gt;are the stateful records maintained on the server side. &lt;b&gt;&lt;i&gt;sessionId &lt;/i&gt;&lt;/b&gt;transfers between client/server.&lt;/div&gt;&lt;div style=&quot;&quot;&gt;&lt;br&gt;&lt;/div&gt;&lt;div style=&quot;&quot;&gt;4. &lt;b&gt;&lt;i&gt;Token &lt;/i&gt;&lt;/b&gt;is an ambiguous terminology. It may refer to sessionId, JWT or just a string in the HTTP Auth header/URL param without any definate meaning.&lt;/div&gt;&lt;div style=&quot;&quot;&gt;&lt;br&gt;&lt;/div&gt;&lt;div style=&quot;&quot;&gt;5. &lt;i&gt;&lt;b&gt;JWT&lt;/b&gt;&lt;/i&gt; makes token more meaningful. Moreover, it is a complete mechanism for user authorization&lt;/div&gt;" style="text;html=1;align=left;verticalAlign=top;whiteSpace=wrap;rounded=0;" parent="1" vertex="1">
          <mxGeometry x="180" y="480" width="300" height="240" as="geometry" />
        </mxCell>
        <mxCell id="5062YTrGmVt7nL1EK5kf-2" value="&lt;b&gt;&lt;font style=&quot;font-size: 24px;&quot;&gt;Basic Concepts&lt;/font&gt;&lt;/b&gt;" style="text;html=1;align=center;verticalAlign=middle;whiteSpace=wrap;rounded=0;" parent="1" vertex="1">
          <mxGeometry x="190" y="230" width="260" height="30" as="geometry" />
        </mxCell>
      </root>
    </mxGraphModel>
  </diagram>
  <diagram id="vAkoc8HsJWggm65f2pxC" name="session-based">
    <mxGraphModel dx="662" dy="433" grid="1" gridSize="10" guides="1" tooltips="1" connect="1" arrows="1" fold="1" page="1" pageScale="1" pageWidth="827" pageHeight="1169" math="0" shadow="0">
      <root>
        <mxCell id="0" />
        <mxCell id="1" parent="0" />
        <mxCell id="Z7mpt309YWXRZjpIpUea-5" value="" style="endArrow=classic;html=1;rounded=0;exitX=1;exitY=0.25;exitDx=0;exitDy=0;entryX=0;entryY=0.25;entryDx=0;entryDy=0;" parent="1" source="Z7mpt309YWXRZjpIpUea-3" target="Z7mpt309YWXRZjpIpUea-4" edge="1">
          <mxGeometry width="50" height="50" relative="1" as="geometry">
            <mxPoint x="320" y="690" as="sourcePoint" />
            <mxPoint x="370" y="640" as="targetPoint" />
          </mxGeometry>
        </mxCell>
        <mxCell id="Z7mpt309YWXRZjpIpUea-1" value="Cookie/URL param" style="rounded=1;whiteSpace=wrap;html=1;fillColor=#fff2cc;strokeColor=#d6b656;" parent="1" vertex="1">
          <mxGeometry x="280" y="560" width="120" height="40" as="geometry" />
        </mxCell>
        <mxCell id="GPj1Bg7V2m9Mf9lO-2Xa-1" style="edgeStyle=orthogonalEdgeStyle;rounded=0;orthogonalLoop=1;jettySize=auto;html=1;exitX=1;exitY=0.5;exitDx=0;exitDy=0;entryX=0.5;entryY=1;entryDx=0;entryDy=0;curved=1;" parent="1" source="Z7mpt309YWXRZjpIpUea-2" target="DQTSJq2FN4VNnO-8xzf1-1" edge="1">
          <mxGeometry relative="1" as="geometry" />
        </mxCell>
        <mxCell id="Z7mpt309YWXRZjpIpUea-2" value="sessionId" style="rounded=1;whiteSpace=wrap;html=1;fillColor=#f5f5f5;fontColor=#333333;strokeColor=#666666;" parent="1" vertex="1">
          <mxGeometry x="300" y="530" width="80" height="30" as="geometry" />
        </mxCell>
        <mxCell id="Z7mpt309YWXRZjpIpUea-3" value="Client" style="rounded=1;whiteSpace=wrap;html=1;" parent="1" vertex="1">
          <mxGeometry x="160" y="560" width="80" height="120" as="geometry" />
        </mxCell>
        <mxCell id="Z7mpt309YWXRZjpIpUea-4" value="Server" style="rounded=1;whiteSpace=wrap;html=1;" parent="1" vertex="1">
          <mxGeometry x="440" y="560" width="80" height="120" as="geometry" />
        </mxCell>
        <mxCell id="Z7mpt309YWXRZjpIpUea-6" value="sessions" style="rounded=1;whiteSpace=wrap;html=1;fillColor=#d5e8d4;strokeColor=#82b366;" parent="1" vertex="1">
          <mxGeometry x="560" y="560" width="80" height="40" as="geometry" />
        </mxCell>
        <mxCell id="Z7mpt309YWXRZjpIpUea-7" value="" style="shape=datastore;whiteSpace=wrap;html=1;" parent="1" vertex="1">
          <mxGeometry x="580" y="605" width="40" height="30" as="geometry" />
        </mxCell>
        <mxCell id="Z7mpt309YWXRZjpIpUea-8" value="" style="endArrow=classic;html=1;rounded=0;exitX=1;exitY=0.25;exitDx=0;exitDy=0;entryX=0;entryY=0.75;entryDx=0;entryDy=0;" parent="1" source="Z7mpt309YWXRZjpIpUea-4" target="Z7mpt309YWXRZjpIpUea-6" edge="1">
          <mxGeometry width="50" height="50" relative="1" as="geometry">
            <mxPoint x="250" y="600" as="sourcePoint" />
            <mxPoint x="450" y="600" as="targetPoint" />
          </mxGeometry>
        </mxCell>
        <mxCell id="ZWsocGQT7IjFymdOvdRV-1" value="&lt;h1 style=&quot;margin-top: 0px;&quot;&gt;&lt;span style=&quot;font-size: 19px; background-color: initial;&quot;&gt;Pros&lt;/span&gt;&lt;br&gt;&lt;/h1&gt;&lt;h1 style=&quot;margin-top: 0px;&quot;&gt;&lt;font style=&quot;font-size: 19px;&quot;&gt;&lt;div style=&quot;font-size: 12px; font-weight: 400;&quot;&gt;&lt;font style=&quot;font-size: 19px;&quot;&gt;&lt;span style=&quot;font-size: 12px;&quot;&gt;1. Easy to implement&lt;/span&gt;&lt;/font&gt;&lt;/div&gt;&lt;/font&gt;&lt;/h1&gt;&lt;h1 style=&quot;margin-top: 0px;&quot;&gt;&lt;font style=&quot;font-size: 19px;&quot;&gt;Cons&lt;/font&gt;&lt;/h1&gt;&lt;p&gt;1. Cookie may be hacked by middle-man&lt;/p&gt;&lt;p&gt;2. Prone to CSRF attacks&lt;/p&gt;&lt;p&gt;3. Requires storing session records additionally in a server-side database&lt;/p&gt;&lt;p&gt;4. When the server processes every client request, an additional database query is needed&amp;nbsp;&lt;/p&gt;&lt;p&gt;5. Server-side database is difficult to scale&lt;/p&gt;&lt;h1 style=&quot;margin-top: 0px;&quot;&gt;&lt;font style=&quot;font-size: 19px;&quot;&gt;Improvements&lt;/font&gt;&lt;/h1&gt;&lt;p&gt;1. Sticky session&lt;/p&gt;&lt;p&gt;2. Use &lt;b&gt;&lt;i&gt;Redis&lt;/i&gt;&lt;/b&gt; to store session&lt;/p&gt;" style="text;html=1;whiteSpace=wrap;overflow=hidden;rounded=0;" parent="1" vertex="1">
          <mxGeometry x="160" y="710" width="500" height="370" as="geometry" />
        </mxCell>
        <mxCell id="DQTSJq2FN4VNnO-8xzf1-1" value="&lt;span spellcheck=&quot;false&quot; class=&quot;md-pair-s md-expand&quot; style=&quot;box-sizing: border-box; color: rgb(51, 51, 51); font-family: &amp;quot;Open Sans&amp;quot;, &amp;quot;Clear Sans&amp;quot;, &amp;quot;Helvetica Neue&amp;quot;, Helvetica, Arial, &amp;quot;Segoe UI Emoji&amp;quot;, sans-serif; font-size: 16px; font-style: normal; font-variant-ligatures: normal; font-variant-caps: normal; font-weight: 400; letter-spacing: normal; orphans: 4; text-align: left; text-indent: 0px; text-transform: none; widows: 2; word-spacing: 0px; -webkit-text-stroke-width: 0px; white-space: pre-wrap; background-color: rgb(255, 255, 255); text-decoration-thickness: initial; text-decoration-style: initial; text-decoration-color: initial;&quot;&gt;&lt;code style=&quot;box-sizing: border-box; font-family: var(--monospace); text-align: left; vertical-align: initial; border: 1px solid rgb(231, 234, 237); background-color: rgb(243, 244, 244); border-radius: 3px; padding: 0px 2px; font-size: 0.9em;&quot;&gt;Cookie: JSESSIONID=&amp;lt;sessionId&amp;gt;&lt;/code&gt;&lt;/span&gt;&lt;span class=&quot;md-plain&quot; style=&quot;box-sizing: border-box; color: rgb(51, 51, 51); font-family: &amp;quot;Open Sans&amp;quot;, &amp;quot;Clear Sans&amp;quot;, &amp;quot;Helvetica Neue&amp;quot;, Helvetica, Arial, &amp;quot;Segoe UI Emoji&amp;quot;, sans-serif; font-size: 16px; font-style: normal; font-variant-ligatures: normal; font-variant-caps: normal; font-weight: 400; letter-spacing: normal; orphans: 4; text-align: left; text-indent: 0px; text-transform: none; widows: 2; word-spacing: 0px; -webkit-text-stroke-width: 0px; white-space: pre-wrap; background-color: rgb(255, 255, 255); text-decoration-thickness: initial; text-decoration-style: initial; text-decoration-color: initial;&quot;&gt; &lt;/span&gt;" style="text;whiteSpace=wrap;html=1;" parent="1" vertex="1">
          <mxGeometry x="330" y="480" width="240" height="30" as="geometry" />
        </mxCell>
        <mxCell id="QxcimnDeQuF4N2tWJY9G-1" value="&lt;font color=&quot;#ff3333&quot;&gt;&lt;b&gt;55790364AC346CA56&lt;/b&gt;&lt;/font&gt;" style="text;html=1;align=center;verticalAlign=middle;whiteSpace=wrap;rounded=0;" parent="1" vertex="1">
          <mxGeometry x="480" y="460" width="120" height="30" as="geometry" />
        </mxCell>
      </root>
    </mxGraphModel>
  </diagram>
  <diagram id="6w0xXYHJKsB4stgTEk8f" name="JWT-based">
    <mxGraphModel dx="794" dy="519" grid="1" gridSize="10" guides="1" tooltips="1" connect="1" arrows="1" fold="1" page="1" pageScale="1" pageWidth="827" pageHeight="1169" math="0" shadow="0">
      <root>
        <mxCell id="0" />
        <mxCell id="1" parent="0" />
        <mxCell id="RRtOoli8ec8bY6aPEpsy-1" value="" style="endArrow=classic;html=1;rounded=0;exitX=1;exitY=0.25;exitDx=0;exitDy=0;entryX=0;entryY=0.25;entryDx=0;entryDy=0;" parent="1" source="RRtOoli8ec8bY6aPEpsy-4" target="RRtOoli8ec8bY6aPEpsy-5" edge="1">
          <mxGeometry width="50" height="50" relative="1" as="geometry">
            <mxPoint x="320" y="690" as="sourcePoint" />
            <mxPoint x="370" y="640" as="targetPoint" />
          </mxGeometry>
        </mxCell>
        <mxCell id="RRtOoli8ec8bY6aPEpsy-2" value="HTTP auth header/ Cookie" style="rounded=1;whiteSpace=wrap;html=1;fillColor=#fff2cc;strokeColor=#d6b656;" parent="1" vertex="1">
          <mxGeometry x="280" y="560" width="120" height="40" as="geometry" />
        </mxCell>
        <mxCell id="PmTmDlmbgZKBtL9JH-Ja-4" style="edgeStyle=orthogonalEdgeStyle;rounded=0;orthogonalLoop=1;jettySize=auto;html=1;exitX=1;exitY=0.5;exitDx=0;exitDy=0;entryX=0.75;entryY=1;entryDx=0;entryDy=0;curved=1;" parent="1" source="RRtOoli8ec8bY6aPEpsy-3" target="PmTmDlmbgZKBtL9JH-Ja-1" edge="1">
          <mxGeometry relative="1" as="geometry" />
        </mxCell>
        <mxCell id="RRtOoli8ec8bY6aPEpsy-3" value="JWT" style="rounded=1;whiteSpace=wrap;html=1;fillColor=#f5f5f5;fontColor=#333333;strokeColor=#666666;" parent="1" vertex="1">
          <mxGeometry x="300" y="530" width="80" height="30" as="geometry" />
        </mxCell>
        <mxCell id="RRtOoli8ec8bY6aPEpsy-4" value="Client" style="rounded=1;whiteSpace=wrap;html=1;" parent="1" vertex="1">
          <mxGeometry x="160" y="560" width="80" height="120" as="geometry" />
        </mxCell>
        <mxCell id="RRtOoli8ec8bY6aPEpsy-5" value="Server" style="rounded=1;whiteSpace=wrap;html=1;" parent="1" vertex="1">
          <mxGeometry x="440" y="560" width="80" height="120" as="geometry" />
        </mxCell>
        <mxCell id="RRtOoli8ec8bY6aPEpsy-10" style="edgeStyle=orthogonalEdgeStyle;rounded=0;orthogonalLoop=1;jettySize=auto;html=1;exitX=1;exitY=0.25;exitDx=0;exitDy=0;entryX=1;entryY=0.5;entryDx=0;entryDy=0;" parent="1" source="RRtOoli8ec8bY6aPEpsy-5" target="RRtOoli8ec8bY6aPEpsy-5" edge="1">
          <mxGeometry relative="1" as="geometry">
            <Array as="points">
              <mxPoint x="540" y="590" />
              <mxPoint x="540" y="620" />
            </Array>
          </mxGeometry>
        </mxCell>
        <mxCell id="RXMQRmetnwfnFP-Wksgr-1" value="&lt;b&gt;JWT signature&lt;/b&gt;&lt;div&gt;&lt;b&gt;validation&lt;/b&gt;&lt;/div&gt;" style="text;html=1;align=center;verticalAlign=middle;whiteSpace=wrap;rounded=0;fontColor=#7DE650;" parent="1" vertex="1">
          <mxGeometry x="550" y="585" width="70" height="30" as="geometry" />
        </mxCell>
        <mxCell id="YlPMwobpAwDszg0sxWBd-1" value="&lt;h1 style=&quot;margin-top: 0px;&quot;&gt;&lt;span style=&quot;font-size: 19px; background-color: initial;&quot;&gt;Pros&lt;/span&gt;&lt;br&gt;&lt;/h1&gt;&lt;div&gt;&lt;font style=&quot;font-size: 19px;&quot;&gt;&lt;span style=&quot;font-size: 12px; font-weight: 400;&quot;&gt;1. Stateless and&amp;nbsp;&lt;/span&gt;&lt;/font&gt;&lt;span style=&quot;background-color: initial;&quot;&gt;self-contained (requires NO database)&lt;/span&gt;&lt;/div&gt;&lt;div&gt;&lt;font style=&quot;font-size: 19px;&quot;&gt;&lt;span style=&quot;font-size: 12px; font-weight: 400;&quot;&gt;2. Easy scaling&lt;/span&gt;&lt;/font&gt;&lt;/div&gt;&lt;div&gt;&lt;font style=&quot;font-size: 19px;&quot;&gt;&lt;span style=&quot;font-size: 12px; font-weight: 400;&quot;&gt;&lt;br&gt;&lt;/span&gt;&lt;/font&gt;&lt;/div&gt;&lt;h1 style=&quot;margin-top: 0px;&quot;&gt;&lt;font style=&quot;font-size: 19px;&quot;&gt;Cons&lt;/font&gt;&lt;/h1&gt;&lt;p&gt;1. Complex validation algorithm (HMAC/RSA), may bring computation overhead&lt;/p&gt;&lt;p&gt;2. Cannot invalidate JWT (can be solved by using &lt;b&gt;&lt;i&gt;refresh&lt;/i&gt;&lt;/b&gt; tokens)&lt;/p&gt;" style="text;html=1;whiteSpace=wrap;overflow=hidden;rounded=0;" parent="1" vertex="1">
          <mxGeometry x="160" y="710" width="500" height="220" as="geometry" />
        </mxCell>
        <mxCell id="PmTmDlmbgZKBtL9JH-Ja-1" value="&lt;span spellcheck=&quot;false&quot; class=&quot;md-pair-s md-expand&quot; style=&quot;box-sizing: border-box; color: rgb(51, 51, 51); font-family: &amp;quot;Open Sans&amp;quot;, &amp;quot;Clear Sans&amp;quot;, &amp;quot;Helvetica Neue&amp;quot;, Helvetica, Arial, &amp;quot;Segoe UI Emoji&amp;quot;, sans-serif; font-size: 16px; font-style: normal; font-variant-ligatures: normal; font-variant-caps: normal; font-weight: 400; letter-spacing: normal; orphans: 4; text-align: left; text-indent: 0px; text-transform: none; widows: 2; word-spacing: 0px; -webkit-text-stroke-width: 0px; white-space: pre-wrap; background-color: rgb(255, 255, 255); text-decoration-thickness: initial; text-decoration-style: initial; text-decoration-color: initial;&quot;&gt;&lt;code style=&quot;box-sizing: border-box; font-family: var(--monospace); text-align: left; vertical-align: initial; border: 1px solid rgb(231, 234, 237); background-color: rgb(243, 244, 244); border-radius: 3px; padding: 0px 2px; font-size: 0.9em;&quot;&gt;Authorization: Bearer &amp;lt;token&amp;gt;&lt;/code&gt;&lt;/span&gt;&lt;span class=&quot;md-plain&quot; style=&quot;box-sizing: border-box; color: rgb(51, 51, 51); font-family: &amp;quot;Open Sans&amp;quot;, &amp;quot;Clear Sans&amp;quot;, &amp;quot;Helvetica Neue&amp;quot;, Helvetica, Arial, &amp;quot;Segoe UI Emoji&amp;quot;, sans-serif; font-size: 16px; font-style: normal; font-variant-ligatures: normal; font-variant-caps: normal; font-weight: 400; letter-spacing: normal; orphans: 4; text-align: left; text-indent: 0px; text-transform: none; widows: 2; word-spacing: 0px; -webkit-text-stroke-width: 0px; white-space: pre-wrap; background-color: rgb(255, 255, 255); text-decoration-thickness: initial; text-decoration-style: initial; text-decoration-color: initial;&quot;&gt; &lt;/span&gt;" style="text;whiteSpace=wrap;html=1;" parent="1" vertex="1">
          <mxGeometry x="310" y="470" width="200" height="30" as="geometry" />
        </mxCell>
        <mxCell id="RShWyWdsVaYThmQoLUnB-1" value="" style="shape=image;verticalLabelPosition=bottom;labelBackgroundColor=default;verticalAlign=top;aspect=fixed;imageAspect=0;image=https://ucc.alicdn.com/images/user-upload-01/fe7a3884df1443329a1f35b2a7ae838c.png;clipPath=inset(12.32% 17.33% 12.32% 15.67%);" parent="1" vertex="1">
          <mxGeometry x="427.25" y="388.38" width="315.5" height="81.62" as="geometry" />
        </mxCell>
        <mxCell id="gcWt8zrCKNDvJnl5PVPa-1" value="&lt;h1 style=&quot;forced-color-adjust: none; font-family: Helvetica; font-style: normal; font-variant-ligatures: normal; font-variant-caps: normal; letter-spacing: normal; orphans: 2; text-align: left; text-indent: 0px; text-transform: none; widows: 2; word-spacing: 0px; -webkit-text-stroke-width: 0px; white-space: normal; background-color: rgb(251, 251, 251); text-decoration-thickness: initial; text-decoration-style: initial; text-decoration-color: initial; margin-top: 0px;&quot;&gt;&lt;font style=&quot;forced-color-adjust: none; font-size: 19px;&quot;&gt;Note: JWT may not be a better solution than session+cookie!&lt;/font&gt;&lt;/h1&gt;" style="text;whiteSpace=wrap;html=1;fontColor=#FF6666;" parent="1" vertex="1">
          <mxGeometry x="160" y="960" width="590" height="70" as="geometry" />
        </mxCell>
      </root>
    </mxGraphModel>
  </diagram>
</mxfile>
